<svg id="visual" 
viewBox="0 0 960 540"
 width="960" 
 height="540" xmlns="http://www.w3.org/2000/svg"
  xmlns:xlink="http://www.w3.org/1999/xlink" version="1.1"><rect x="0" y="0" width="960" height="540" fill="#f2ebf6">
  </rect><path d="M0 227L32 252C64 277 128 327 192 345.5C256 364 320 351 384 310.3C448 269.7 512 201.3 576 191.8C640 182.3 704 231.7 768 229.3C832 227 896 173 928 146L960 119L960 541L928 541C896 541 832 541 768 541C704 541 640 541 576 541C512 541 448 541 384 541C320 541 256 541 192 541C128 541 64 541 32 541L0 541Z" fill="#7d4ca7"></path><path d="M0 225L32 247.2C64 269.3 128 313.7 192 341.5C256 369.3 320 380.7 384 372.2C448 363.7 512 335.3 576 308.8C640 282.3 704 257.7 768 264.3C832 271 896 309 928 328L960 347L960 541L928 541C896 541 832 541 768 541C704 541 640 541 576 541C512 541 448 541 384 541C320 541 256 541 192 541C128 541 64 541 32 541L0 541Z" fill="#6d3d9e"></path><path d="M0 415L32 409.5C64 404 128 393 192 385.5C256 378 320 374 384 370.7C448 367.3 512 364.7 576 378.8C640 393 704 424 768 422.8C832 421.7 896 388.3 928 371.7L960 355L960 541L928 541C896 541 832 541 768 541C704 541 640 541 576 541C512 541 448 541 384 541C320 541 256 541 192 541C128 541 64 541 32 541L0 541Z" fill="#5d2f94"></path><path d="M0 374L32 386.8C64 399.7 128 425.3 192 440.2C256 455 320 459 384 456.8C448 454.7 512 446.3 576 443.7C640 441 704 444 768 442.5C832 441 896 435 928 432L960 429L960 541L928 541C896 541 832 541 768 541C704 541 640 541 576 541C512 541 448 541 384 541C320 541 256 541 192 541C128 541 64 541 32 541L0 541Z" fill="#4b218b"></path></svg>