<svg id="visual" viewBox="0 0 900 450" width="900" height="450" xmlns="http://www.w3.org/2000/svg" xmlns:xlink="http://www.w3.org/1999/xlink" version="1.1"><rect x="0" y="0" width="900" height="450" fill="#fafafa"></rect><path d="M0 433L37.5 430.3C75 427.7 150 422.3 225 421.7C300 421 375 425 450 425.8C525 426.7 600 424.3 675 424.7C750 425 825 428 862.5 429.5L900 431L900 451L862.5 451C825 451 750 451 675 451C600 451 525 451 450 451C375 451 300 451 225 451C150 451 75 451 37.5 451L0 451Z" fill="#7d4ca7"></path><path d="M0 420L37.5 422.3C75 424.7 150 429.3 225 430.2C300 431 375 428 450 427.8C525 427.7 600 430.3 675 430.3C750 430.3 825 427.7 862.5 426.3L900 425L900 451L862.5 451C825 451 750 451 675 451C600 451 525 451 450 451C375 451 300 451 225 451C150 451 75 451 37.5 451L0 451Z" fill="#7948a4"></path><path d="M0 426L37.5 425.2C75 424.3 150 422.7 225 424C300 425.3 375 429.7 450 429.7C525 429.7 600 425.3 675 425.2C750 425 825 429 862.5 431L900 433L900 451L862.5 451C825 451 750 451 675 451C600 451 525 451 450 451C375 451 300 451 225 451C150 451 75 451 37.5 451L0 451Z" fill="#7444a2"></path><path d="M0 434L37.5 433.3C75 432.7 150 431.3 225 429.5C300 427.7 375 425.3 450 425.2C525 425 600 427 675 427.2C750 427.3 825 425.7 862.5 424.8L900 424L900 451L862.5 451C825 451 750 451 675 451C600 451 525 451 450 451C375 451 300 451 225 451C150 451 75 451 37.5 451L0 451Z" fill="#70409f"></path><path d="M0 430L37.5 430.7C75 431.3 150 432.7 225 432.8C300 433 375 432 450 431.8C525 431.7 600 432.3 675 433.2C750 434 825 435 862.5 435.5L900 436L900 451L862.5 451C825 451 750 451 675 451C600 451 525 451 450 451C375 451 300 451 225 451C150 451 75 451 37.5 451L0 451Z" fill="#6c3c9d"></path><path d="M0 435L37.5 435C75 435 150 435 225 434.8C300 434.7 375 434.3 450 435C525 435.7 600 437.3 675 436.7C750 436 825 433 862.5 431.5L900 430L900 451L862.5 451C825 451 750 451 675 451C600 451 525 451 450 451C375 451 300 451 225 451C150 451 75 451 37.5 451L0 451Z" fill="#67389a"></path><path d="M0 436L37.5 435.3C75 434.7 150 433.3 225 434.3C300 435.3 375 438.7 450 440C525 441.3 600 440.7 675 440.3C750 440 825 440 862.5 440L900 440L900 451L862.5 451C825 451 750 451 675 451C600 451 525 451 450 451C375 451 300 451 225 451C150 451 75 451 37.5 451L0 451Z" fill="#633498"></path><path d="M0 438L37.5 438.8C75 439.7 150 441.3 225 441.2C300 441 375 439 450 437.8C525 436.7 600 436.3 675 436.2C750 436 825 436 862.5 436L900 436L900 451L862.5 451C825 451 750 451 675 451C600 451 525 451 450 451C375 451 300 451 225 451C150 451 75 451 37.5 451L0 451Z" fill="#5e3095"></path><path d="M0 436L37.5 436.7C75 437.3 150 438.7 225 439.2C300 439.7 375 439.3 450 438.7C525 438 600 437 675 437.5C750 438 825 440 862.5 441L900 442L900 451L862.5 451C825 451 750 451 675 451C600 451 525 451 450 451C375 451 300 451 225 451C150 451 75 451 37.5 451L0 451Z" fill="#592c93"></path><path d="M0 444L37.5 444C75 444 150 444 225 444C300 444 375 444 450 443.2C525 442.3 600 440.7 675 440.7C750 440.7 825 442.3 862.5 443.2L900 444L900 451L862.5 451C825 451 750 451 675 451C600 451 525 451 450 451C375 451 300 451 225 451C150 451 75 451 37.5 451L0 451Z" fill="#552990"></path><path d="M0 443L37.5 442.7C75 442.3 150 441.7 225 441.5C300 441.3 375 441.7 450 442.2C525 442.7 600 443.3 675 443.7C750 444 825 444 862.5 444L900 444L900 451L862.5 451C825 451 750 451 675 451C600 451 525 451 450 451C375 451 300 451 225 451C150 451 75 451 37.5 451L0 451Z" fill="#50258e"></path><path d="M0 444L37.5 444.5C75 445 150 446 225 446.3C300 446.7 375 446.3 450 445.8C525 445.3 600 444.7 675 444.7C750 444.7 825 445.3 862.5 445.7L900 446L900 451L862.5 451C825 451 750 451 675 451C600 451 525 451 450 451C375 451 300 451 225 451C150 451 75 451 37.5 451L0 451Z" fill="#4b218b"></path></svg>